<?xml version="1.0" encoding="UTF-8"?>
<svg width="24px" height="23px" viewBox="0 0 24 23" version="1.1" xmlns="http://www.w3.org/2000/svg" xmlns:xlink="http://www.w3.org/1999/xlink">
    <!-- Generator: Sketch 61.2 (89653) - https://sketch.com -->
    <title>Ig Dark</title>
    <desc>Created with Sketch.</desc>
    <g id="Design" stroke="none" stroke-width="1" fill="none" fill-rule="evenodd">
        <g id="Homepage" transform="translate(-386.000000, -6281.000000)" fill="#FAF9F7">
            <g id="Group-10" transform="translate(0.000000, 5730.000000)">
                <g id="Group-8" transform="translate(255.000000, 489.000000)">
                    <g id="Group-13" transform="translate(0.000000, 62.000000)">
                        <path d="M147.119994,0 C151.026763,0 154.206731,3.11877134 154.305152,7.00200306 L154.3075,7.18748726 L154.3075,15.8124942 C154.3075,19.7194517 151.188574,22.8992376 147.305472,22.9976521 L147.119994,23 L138.494987,23 C134.587589,23 131.408044,19.8812602 131.309637,15.9979807 L131.307289,15.8124942 L131.307289,7.18748726 C131.307289,3.28058013 134.425782,0.100763371 138.30948,0.00234793247 L138.494987,0 L147.119994,0 Z M147.119994,2.15625238 L138.494987,2.15625238 C135.772643,2.15625238 133.54907,4.32877978 133.466131,7.03101317 L133.463733,7.18748726 L133.463733,15.8124942 C133.463733,18.5345247 135.63594,20.7583989 138.338494,20.8413496 L138.494987,20.8437483 L147.119994,20.8437483 C149.841711,20.8437483 152.065887,18.6712332 152.148849,15.9689701 L152.151248,15.8124942 L152.151248,7.18748726 C152.151248,4.46548811 149.978425,2.24160223 147.276452,2.15865104 L147.119994,2.15625238 Z M142.80749,5.75000527 C145.982771,5.75000527 148.557486,8.32458262 148.557486,11.4999907 C148.557486,14.6754627 145.982771,17.2500053 142.80749,17.2500053 C139.631571,17.2500053 137.057486,14.6754627 137.057486,11.4999907 C137.057486,8.32458262 139.631571,5.75000527 142.80749,5.75000527 Z M142.80749,7.90623784 C140.826294,7.90623784 139.213737,9.51770858 139.213737,11.4999907 C139.213737,13.4808673 140.826294,15.0937436 142.80749,15.0937436 C144.788047,15.0937436 146.401243,13.4808673 146.401243,11.4999907 C146.401243,9.51770858 144.788047,7.90623784 142.80749,7.90623784 Z M148.988745,4.55257958 C149.41169,4.55257958 149.754774,4.89561208 149.754774,5.31877409 C149.754774,5.74191054 149.41169,6.08495582 148.988745,6.08495582 C148.565162,6.08495582 148.222078,5.74191054 148.222078,5.31877409 C148.222078,4.89561208 148.565162,4.55257958 148.988745,4.55257958 Z" id="Ig-Dark"></path>
                    </g>
                </g>
            </g>
        </g>
    </g>
</svg>